<svg xmlns="http://www.w3.org/2000/svg" fill="none" viewBox="0 0 512 512"><rect width="512" height="512" fill="#09090b" rx="112"/><g transform="translate(116, 108)"><rect width="80" height="64" x="0" y="0" fill="#fafafa" rx="16"/><rect width="80" height="64" x="100" y="0" fill="#fafafa" rx="16"/><rect width="80" height="64" x="200" y="0" fill="#fafafa" rx="16"/><rect width="80" height="64" x="100" y="84" fill="#fafafa" opacity=".9" rx="16"/><rect width="80" height="64" x="100" y="168" fill="#fafafa" opacity=".7" rx="16"/><rect width="80" height="64" x="100" y="252" fill="#fafafa" opacity=".4" rx="16"/><rect width="80" height="64" x="0" y="84" fill="#27272a" rx="16"/><rect width="80" height="64" x="0" y="168" fill="#27272a" rx="16"/><rect width="80" height="64" x="0" y="252" fill="#27272a" rx="16"/><rect width="80" height="64" x="200" y="84" fill="#27272a" rx="16"/><rect width="80" height="64" x="200" y="168" fill="#27272a" rx="16"/><rect width="80" height="64" x="200" y="252" fill="#27272a" rx="16"/></g></svg>