<svg xmlns="http://www.w3.org/2000/svg" fill="none" viewBox="0 0 1200 630"><rect width="1200" height="630" fill="#09090b"/><defs><pattern id="grid" width="40" height="40" patternUnits="userSpaceOnUse"><path fill="none" stroke="#27272a" stroke-width="1" d="M 40 0 L 0 0 0 40" opacity=".4"/></pattern><linearGradient id="fade" x1="0" x2="0" y1="0" y2="100%"><stop offset="0%" stop-color="#09090b" stop-opacity="0"/><stop offset="100%" stop-color="#09090b" stop-opacity="1"/></linearGradient><linearGradient id="textGradient" x1="0" x2="100%" y1="0" y2="0"><stop offset="0%" stop-color="#fff"/><stop offset="100%" stop-color="#a1a1aa"/></linearGradient></defs><rect width="1200" height="630" fill="url(#grid)"/><rect width="1200" height="630" fill="url(#fade)"/><g><g transform="translate(190, 190) scale(0.7)"><rect width="80" height="64" x="0" y="0" fill="#fafafa" rx="16"/><rect width="80" height="64" x="100" y="0" fill="#fafafa" rx="16"/><rect width="80" height="64" x="200" y="0" fill="#fafafa" rx="16"/><rect width="80" height="64" x="100" y="84" fill="#fafafa" opacity=".9" rx="16"/><rect width="80" height="64" x="100" y="168" fill="#fafafa" opacity=".7" rx="16"/><rect width="80" height="64" x="100" y="252" fill="#fafafa" opacity=".4" rx="16"/><rect width="80" height="64" x="0" y="84" fill="#27272a" rx="16"/><rect width="80" height="64" x="0" y="168" fill="#27272a" rx="16"/><rect width="80" height="64" x="0" y="252" fill="#27272a" rx="16"/><rect width="80" height="64" x="200" y="84" fill="#27272a" rx="16"/><rect width="80" height="64" x="200" y="168" fill="#27272a" rx="16"/><rect width="80" height="64" x="200" y="252" fill="#27272a" rx="16"/></g><text x="270" y="100" fill="url(#textGradient)" font-family="-apple-system, BlinkMacSystemFont, 'Segoe UI', Roboto, Helvetica, Arial, sans-serif" font-size="100" font-weight="bold" letter-spacing="-3" transform="translate(190, 190)">TableCraft</text><text x="275" y="165" fill="#a1a1aa" font-family="-apple-system, BlinkMacSystemFont, 'Segoe UI', Roboto, Helvetica, Arial, sans-serif" font-size="34" font-weight="500" letter-spacing="-.5" transform="translate(190, 190)">Complex table setup in 5 minutes.</text><g transform="translate(190, 190) translate(275, 210)"><rect width="135" height="44" x="0" y="0" fill="#18181b" stroke="#27272a" stroke-width="2" rx="22"/><text x="67.5" y="28" fill="#e4e4e7" font-family="-apple-system, sans-serif" font-size="18" font-weight="600" text-anchor="middle">Drizzle ORM</text><rect width="110" height="44" x="155" y="0" fill="#18181b" stroke="#27272a" stroke-width="2" rx="22"/><text x="210" y="28" fill="#e4e4e7" font-family="-apple-system, sans-serif" font-size="18" font-weight="600" text-anchor="middle">Shadcn</text><rect width="100" height="44" x="285" y="0" fill="#18181b" stroke="#27272a" stroke-width="2" rx="22"/><text x="335" y="28" fill="#e4e4e7" font-family="-apple-system, sans-serif" font-size="18" font-weight="600" text-anchor="middle">React</text></g></g></svg>